# xmcd
#
# Track frame offsets:
#	150
#	16282
#	27967
#	44674
#	59145
#	70012
#	89064
#	104410
#	118659
#	138477
#	154097
#	174996
#
# Disc length: 2638 seconds
#
# Revision: 0
# Processed by: cddbd v1.5.2PL0 Copyright (c) Steve Scherf et al.
# Submitted via: dBpowerAMP V4.0
#
DISCID=aa0a4c0c
DTITLE=Jay Semko - International Superstar
DYEAR=2008
DGENRE=Country rock
TTITLE0=That's the kind of lover
TTITLE1=The Blues Just Fly Away
TTITLE2=International Superstar
TTITLE3=Absolutely Free
TTITLE4=You Do that to Me
TTITLE5=Breathtaking, Life Changing Love
TTITLE6=She won't be lonely Long
TTITLE7=Not My Girl
TTITLE8=I'd Give you The Money
TTITLE9=Katie Close the Door
TTITLE10=Time Will Heal
TTITLE11=Jesus is gonna Help Me
EXTD=
EXTT0=
EXTT1=
EXTT2=
EXTT3=
EXTT4=
EXTT5=
EXTT6=
EXTT7=
EXTT8=
EXTT9=
EXTT10=
EXTT11=
PLAYORDER=
